<?xml version="1.0" standalone="no"?><!DOCTYPE svg PUBLIC "-//W3C//DTD SVG 1.1//EN" "http://www.w3.org/Graphics/SVG/1.1/DTD/svg11.dtd"><svg t="1523541008722" class="icon" style="" viewBox="0 0 1024 1024" version="1.1" xmlns="http://www.w3.org/2000/svg" p-id="2186" xmlns:xlink="http://www.w3.org/1999/xlink" width="200" height="200"><defs><style type="text/css"></style></defs><path d="M952.344 659.397l2.039 14.275v20.392l-1.020 7.137-1.020 12.235-3.059 11.216-3.059 10.196-1.020 5.098-2.039 4.078-3.059 4.078-2.039 4.078-2.039 3.059-3.059 3.059-2.039 3.059-3.059 2.039-3.059 1.020-3.059 2.039-3.059 1.020h-3.059l-3.059-1.020-4.078-2.039-2.039-2.039-3.059-1.020-2.039-3.059-6.118-6.118-16.314-24.471-5.098-10.196-5.098-11.216h-2.039l-2.039 1.020-1.020 3.059-3.059 4.078-3.059 10.196-6.118 15.294-8.157 18.353-5.098 9.176-6.118 10.196-7.137 11.216-7.137 10.196-4.078 5.098-15.294 15.294 1.020 1.020 1.020-4.078 5.098 3.059 32.627 16.314 9.176 5.098 9.176 7.137 8.157 7.137 4.078 3.059 3.059 4.078 3.059 3.059 2.039 5.098 2.039 4.078 3.059 12.235-1.020 3.059v3.059l-2.039 6.118-3.059 6.118-3.059 5.098-7.137 7.137-2.039 3.059-6.118 4.078-7.137 4.078-8.157 3.059-7.137 4.078-9.176 3.059-5.098 2.039-4.078 1.020-10.196 2.039-10.196 3.059-11.216 2.039-11.216 1.020-12.235 1.020-12.235 2.039h-38.745l-13.255-1.020-13.255-2.039-13.255-1.020-14.275-1.020-28.549-6.118-13.255-3.059-14.275-3.059-13.255-5.098-14.275-4.078-6.118-3.059-7.137-2.039-8.157-2.039h-11.216l-13.255-1.020-6.118-1.020h-8.157l-6.118 4.078-7.137 5.098-10.196 5.098-11.216 6.118-14.275 6.118-15.294 6.118-18.353 4.078-12.235 3.059h-7.137l-9.176 1.020-8.157 1.020-9.176 1.020h-41.804l-22.431-1.020-22.431-2.039-12.235-2.039-10.196-2.039-11.216-1.020-10.196-2.039-10.196-3.059-27.529-9.176-7.137-4.078-7.137-5.098-7.137-4.078-10.196-10.196-1.020-4.078-1.020-3.059-4.078-8.157v-15.294l1.020-4.078v-7.137l1.020-4.078 2.039-4.078 1.020-5.098 2.039-5.098 2.039-2.039 2.039-3.059 4.078-5.098 4.078-2.039 2.039-2.039 4.078-3.059 4.078-1.020 8.157-4.078 5.098-2.039 6.118-2.039 12.235-2.039h7.137l7.137-1.020 2.039-1.020 1.020-1.020v-1.020l-1.020-1.020-4.078-2.039-10.196-3.059-7.137-5.098-15.294-15.294-8.157-9.176-9.176-11.216-8.157-12.235-8.157-14.275-4.078-8.157-3.059-8.157-4.078-8.157-4.078-9.176-3.059-9.176-2.039-11.216h-2.039v-1.020h-1.020l-1.020 1.020h-1.020l-3.059 6.118-1.020 3.059-5.098 9.176-2.039 4.078-3.059 5.098-4.078 5.098-5.098 5.098-4.078 5.098-5.098 5.098-6.118 4.078-5.098 4.078-6.118 4.078-6.118 2.039-8.157 2.039-3.059 1.020h-2.039l-2.039-1.020h-2.039l-2.039-2.039-1.020-2.039-4.078-6.118-1.020-3.059-1.020-5.098-2.039-5.098-1.020-6.118-1.020-11.216-1.020-7.137v-22.431l1.020-16.314 2.039-8.157 2.039-18.353 3.059-9.176 6.118-20.392 4.078-10.196 3.059-9.176 5.098-10.196 5.098-11.216 6.118-9.176 7.137-11.216 14.275-20.392 6.118-8.157 8.157-8.157 8.157-9.176 3.059-4.078 5.098-4.078 14.275-12.235 11.216-10.196 8.157-6.118 3.059-2.039-1.020-5.098-2.039-7.137-1.020-4.078v-15.294l2.039-6.118 1.020-6.118 2.039-7.137 4.078-7.137 3.059-8.157 6.118-7.137v-11.216l1.020-6.118 2.039-8.157 3.059-8.157 1.020-4.078 2.039-4.078 3.059-3.059 2.039-3.059v-19.373l2.039-10.196 1.020-11.216 4.078-14.275 3.059-14.275 3.059-7.137 3.059-9.176 3.059-8.157 4.078-8.157 8.157-18.353 5.098-9.176 6.118-9.176 3.059-5.098 4.078-5.098 6.118-10.196 7.137-9.176 16.314-20.392 9.176-10.196 10.196-9.176 11.216-11.216 8.157-6.118 9.176-7.137 9.176-6.118 20.392-12.235 10.196-4.078 11.216-5.098 11.216-4.078 24.471-8.157 12.235-3.059 12.235-2.039 13.255-2.039 13.255-1.020 13.255-2.039 13.255-1.020h40.784l13.255 2.039 14.275 1.020 13.255 2.039 13.255 3.059 14.275 3.059 26.51 6.118 13.255 5.098 24.471 10.196 13.255 6.118 22.431 14.275 10.196 7.137 4.078 3.059 5.098 4.078 9.176 7.137 15.294 15.294 7.137 8.157 6.118 8.157 7.137 9.176 5.098 9.176 5.098 8.157 6.118 9.176 4.078 8.157 8.157 17.333 9.176 27.529 3.059 8.157 2.039 7.137 2.039 9.176 4.078 15.294 3.059 13.255 1.020 13.255 2.039 10.196 2.039 16.314 1.020 2.039 1.020 3.059 6.118 9.176 3.059 5.098 6.118 12.235 3.059 7.137 3.059 8.157 2.039 8.157 1.020 8.157 2.039 10.196v5.098l-1.020 4.078v5.098l-1.020 6.118-3.059 10.196-2.039 5.098-2.039 6.118v2.039l1.020 1.020 3.059 5.098 12.235 17.333 9.176 14.275 4.078 8.157 6.118 10.196 5.098 10.196 6.118 11.216 6.118 13.255 7.137 14.275 8.157 18.353 3.059 9.176 3.059 8.157 4.078 16.314 3.059 16.314z" p-id="2187"></path></svg>